<?xml version="1.0" encoding="UTF-8" standalone="no"?>
<svg
   width="2488.5305"
   height="825.09796"
   xml:space="preserve"
   overflow="hidden"
   version="1.1"
   id="svg4"
   sodipodi:docname="sabre_logo_black_nobg.svg"
   inkscape:version="1.3 (0e150ed6c4, 2023-07-21)"
   inkscape:export-filename="sabre_logo_black_nobg.png"
   inkscape:export-xdpi="96"
   inkscape:export-ydpi="96"
   xmlns:inkscape="http://www.inkscape.org/namespaces/inkscape"
   xmlns:sodipodi="http://sodipodi.sourceforge.net/DTD/sodipodi-0.dtd"
   xmlns="http://www.w3.org/2000/svg"
   xmlns:svg="http://www.w3.org/2000/svg"><defs
     id="defs4" /><sodipodi:namedview
     id="namedview4"
     pagecolor="#ffffff"
     bordercolor="#000000"
     borderopacity="0.25"
     inkscape:showpageshadow="2"
     inkscape:pageopacity="0.0"
     inkscape:pagecheckerboard="0"
     inkscape:deskcolor="#d1d1d1"
     inkscape:zoom="0.72999279"
     inkscape:cx="1100.0109"
     inkscape:cy="310.27704"
     inkscape:window-width="3840"
     inkscape:window-height="2054"
     inkscape:window-x="-11"
     inkscape:window-y="-11"
     inkscape:window-maximized="1"
     inkscape:current-layer="svg4" /><g
     transform="translate(-809.20833,-645.74463)"
     id="g4"><text
       font-family="Cambria, Cambria_MSFontService, sans-serif"
       font-weight="700"
       font-size="687px"
       transform="translate(823.263,1109)"
       id="text1">S</text><text
       font-family="Cambria, Cambria_MSFontService, sans-serif"
       font-weight="700"
       font-size="550px"
       transform="translate(1165.78,1109)"
       id="text2">ABRE</text><text
       font-family="Cambria, Cambria_MSFontService, sans-serif"
       font-weight="700"
       font-size="194px"
       transform="translate(1329.51,1446)"
       id="text3">NARRATIVE</text><text
       font-family="Cambria, Cambria_MSFontService, sans-serif"
       font-weight="700"
       font-size="194px"
       transform="translate(2433.09,1446)"
       id="text4">PLANNER</text><path
       d="m 1143.52,1251.3 -81.44,2.2 c -31.48,1.44 -62.876,3.45 -95.519,5.96 l -89.984,7.86 1.84,11.92 c 4.14,22.25 11.26,45.15 20.767,60.96 19.015,31.62 58.972,40.04 90.43,46.22 31.456,6.18 73.696,5.27 98.316,-9.12 24.62,-14.39 40.66,-44.29 49.42,-77.23 2.72,-16.44 4.57,-30.62 5.74,-43.03 z m 2151.56,-243.75 c 0.7,0.14 0.54,0.59 -0.56,1.39 -17.55,12.72 -172.99,114.4 -337.99,155.6 -165.01,41.19 -229.22,51.28 -467.96,77.01 -238.75,25.73 -550.73,22.17 -723.04,20.76 -129.23,-1.05 -263.96,-3.15 -385.77,-6.53 l -106.97,-3.5 -0.13,4.16 c -1.34,22.77 -4.8,50.36 -11.44,85.15 -14.27,46.46 -40.38,88.63 -80.48,108.93 -40.1,20.3 -108.88,21.59 -160.11,12.87 -51.235,-8.72 -116.307,-20.59 -147.273,-65.19 -23.225,-33.45 -37.7,-89.41 -40.176,-130.99 l -0.101,-8.84 -6.252,-5.13 c -9.47,-9.4 -15.328,-22.39 -15.328,-36.74 0,-28.7 23.431,-51.96 52.334,-51.96 l 0.835,0.08 52.25,-10.54 c 292.951,-50.06 687.621,9.75 948.881,6.64 278.69,-3.33 486.68,-2.4 666.05,-15.05 179.36,-12.66 303.56,-28.68 430.67,-51.47 119.17,-21.36 322.12,-88.79 332.56,-86.65 z"
       stroke="#000000"
       stroke-width="4.58333"
       stroke-miterlimit="8"
       fill-rule="evenodd"
       id="path4" /></g></svg>
