<svg width="3542" height="1977" xmlns="http://www.w3.org/2000/svg" xmlns:xlink="http://www.w3.org/1999/xlink" xml:space="preserve" overflow="hidden"><defs><clipPath id="clip0"><rect x="423" y="223" width="3542" height="1977"/></clipPath><radialGradient cx="4907280" cy="2739043" r="5619942" fx="4907280" fy="2739044" gradientUnits="userSpaceOnUse" spreadMethod="pad" id="fill1" gradientTransform="matrix(0.000360892 0 0 0.000360892 423 223)"><stop offset="0" stop-color="#FAFAFA"/><stop offset="0.72" stop-color="#D7D7D7"/><stop offset="1" stop-color="#D7D7D7"/></radialGradient></defs><g clip-path="url(#clip0)" transform="translate(-423 -223)"><rect x="423" y="223" width="3542" height="1977" fill="url(#fill1)"/><text fill="#002244" font-family="Cambria,Cambria_MSFontService,sans-serif" font-weight="700" font-size="687" transform="matrix(1 0 0 1 937.262 1272)">S</text><text fill="#002244" font-family="Cambria,Cambria_MSFontService,sans-serif" font-weight="700" font-size="550" transform="matrix(1 0 0 1 1279.77 1272)">ABRE</text><text fill="#002244" font-family="Cambria,Cambria_MSFontService,sans-serif" font-weight="700" font-size="194" transform="matrix(1 0 0 1 1443.51 1609)">NARRATIVE</text><text fill="#002244" font-family="Cambria,Cambria_MSFontService,sans-serif" font-weight="700" font-size="194" transform="matrix(1 0 0 1 2547.08 1609)">PLANNER</text><path d="M1257.52 1414.77 1176.08 1416.97C1144.6 1418.41 1113.2 1420.4 1080.56 1422.91L990.577 1430.76 992.417 1442.65C996.557 1464.85 1003.68 1487.71 1013.18 1503.48 1032.2 1535.03 1072.16 1543.43 1103.61 1549.6 1135.07 1555.77 1177.31 1554.85 1201.93 1540.49 1226.55 1526.13 1242.59 1496.3 1251.35 1463.44 1254.07 1447.03 1255.92 1432.88 1257.09 1420.5ZM3409.08 1171.55C3409.78 1171.69 3409.62 1172.14 3408.52 1172.94 3390.97 1185.63 3235.53 1287.09 3070.53 1328.2 2905.52 1369.3 2841.31 1379.37 2602.57 1405.04 2363.82 1430.72 2051.84 1427.17 1879.53 1425.76 1750.3 1424.7 1615.57 1422.61 1493.76 1419.24L1386.78 1415.75 1386.66 1419.9C1385.32 1442.62 1381.86 1470.15 1375.22 1504.87 1360.95 1551.23 1334.84 1593.3 1294.74 1613.56 1254.64 1633.81 1185.86 1635.1 1134.63 1626.4 1083.4 1617.7 1018.32 1605.86 987.356 1561.35 964.132 1527.98 949.656 1472.13 947.181 1430.65L947.08 1421.82 940.828 1416.71C931.358 1407.33 925.5 1394.37 925.5 1380.05 925.5 1351.41 948.93 1328.2 977.833 1328.2L978.669 1328.28 1030.92 1317.76C1323.87 1267.81 1718.54 1327.49 1979.8 1324.38 2258.49 1321.07 2466.48 1322 2645.85 1309.37 2825.21 1296.74 2949.41 1280.75 3076.52 1258.02 3195.69 1236.7 3398.64 1169.42 3409.08 1171.55Z" stroke="#002244" stroke-width="4.58333" stroke-miterlimit="8" fill="#002244" fill-rule="evenodd"/></g></svg>